<?xml version="1.0" encoding="UTF-8" standalone="no"?>
<!-- Created with Inkscape (http://www.inkscape.org/) -->

<svg
   width="32"
   height="32"
   viewBox="0 0 8.4666666 8.4666666"
   version="1.1"
   id="svg5"
   sodipodi:docname="fa-layout.svg"
   inkscape:version="1.3 (0e150ed6c4, 2023-07-21)"
   xmlns:inkscape="http://www.inkscape.org/namespaces/inkscape"
   xmlns:sodipodi="http://sodipodi.sourceforge.net/DTD/sodipodi-0.dtd"
   xmlns="http://www.w3.org/2000/svg"
   xmlns:svg="http://www.w3.org/2000/svg">
  <sodipodi:namedview
     id="namedview7"
     pagecolor="#505050"
     bordercolor="#eeeeee"
     borderopacity="1"
     inkscape:showpageshadow="0"
     inkscape:pageopacity="0"
     inkscape:pagecheckerboard="0"
     inkscape:deskcolor="#505050"
     inkscape:document-units="mm"
     showgrid="true"
     inkscape:zoom="15.15625"
     inkscape:cx="15.96701"
     inkscape:cy="16"
     inkscape:window-width="1322"
     inkscape:window-height="688"
     inkscape:window-x="0"
     inkscape:window-y="0"
     inkscape:window-maximized="1"
     inkscape:current-layer="layer1" />
  <defs
     id="defs2">
    <inkscape:path-effect
       effect="fillet_chamfer"
       id="path-effect35"
       is_visible="true"
       lpeversion="1"
       nodesatellites_param="F,0,0,1,0,0,0,1 @ F,0,0,1,0,0,0,1 @ F,0,0,1,0,0,0,1 @ F,0,0,1,0,0,0,1 @ F,0,0,1,0,0.51943932,0,1 @ F,0,0,1,0,0.30305555,0,1 @ F,0,0,1,0,0,0,1 @ F,0,0,1,0,0.16288272,0,1 @ F,0,0,1,0,0.92598065,0,1 @ F,0,0,1,0,0,0,1 @ F,0,0,1,0,0,0,1 @ F,0,0,1,0,0.30816266,0,1 @ F,0,0,1,0,0.49822055,0,1"
       radius="0"
       unit="px"
       method="auto"
       mode="F"
       chamfer_steps="1"
       flexible="false"
       use_knot_distance="true"
       apply_no_radius="true"
       apply_with_radius="true"
       only_selected="false"
       hide_knots="false" />
    <inkscape:path-effect
       effect="fillet_chamfer"
       id="path-effect34"
       is_visible="true"
       lpeversion="1"
       nodesatellites_param="F,0,0,1,0,0.51471366,0,1 @ F,0,0,1,0,0.51834964,0,1 @ F,0,0,1,0,0.38132045,0,1 @ F,0,0,1,0,0,0,1 @ F,0,0,1,0,0,0,1 @ F,0,0,1,0,0.17032701,0,1 @ F,0,0,1,0,0.99025627,0,1 @ F,0,0,1,0,0,0,1 | F,0,0,1,0,0,0,1 @ F,0,0,1,0,0,0,1 @ F,0,0,1,0,0,0,1 @ F,0,0,1,0,0,0,1"
       radius="0"
       unit="px"
       method="auto"
       mode="F"
       chamfer_steps="1"
       flexible="false"
       use_knot_distance="true"
       apply_no_radius="true"
       apply_with_radius="true"
       only_selected="false"
       hide_knots="false" />
  </defs>
  <g
     inkscape:label="Layer 1"
     inkscape:groupmode="layer"
     id="layer1">
    <path
       id="path32"
       style="opacity:1;fill:#a6adc8;fill-opacity:1;stroke-width:0.730001;stroke-linecap:round"
       d="M 7.1301587,1.897714 1.9044191,7.1234536 C 1.701991,7.3258817 1.7142756,7.6429584 1.9573986,7.7935599 2.094589,7.8785417 2.3309204,7.8193644 2.4798353,7.6704495 L 5.5200765,4.6302083 H 7.6465617 C 7.5877669,5.4059358 7.1421538,6.1272063 6.6401249,6.7130088 6.5789372,6.7844069 6.5281419,6.9171832 6.5286044,7.0112511 6.53071,7.4394713 6.9212601,7.5568168 7.2967723,7.1612393 8.3229731,6.0802037 8.7444505,4.4390515 8.2842489,3.0044678 8.17162,2.6324671 8.0072262,2.2762892 7.7976106,1.9490689 7.6443712,1.7098546 7.3311669,1.6967058 7.1301587,1.897714 Z m 0.2223641,0.900048 c 0.099435,0.2698416 0.2148746,0.5349696 0.2511474,0.8226888 0.00703,0.095183 0.1064269,0.266427 -0.064079,0.2160075 h -1.225765 z"
       sodipodi:nodetypes="cccccccccccccc"
       inkscape:path-effect="#path-effect34"
       inkscape:original-d="M 7.4941162,1.5337565 1.5378906,7.4899821 C 1.7457538,7.6683111 1.971575,7.8096287 2.210201,7.9400838 L 5.5200765,4.6302083 H 7.6465617 C 7.5834117,5.4633979 7.0740136,6.2337639 6.5277669,6.8409261 l 0.00465,0.9456787 C 8.094142,6.8142476 8.8459594,4.7554846 8.2842489,3.0044678 8.1218978,2.46824 7.8519876,1.9648895 7.4941162,1.5337565 Z M 7.3525228,2.797762 c 0.099435,0.2698416 0.2148746,0.5349696 0.2511474,0.8226888 0.00703,0.095183 0.1064269,0.266427 -0.064079,0.2160075 h -1.225765 z" />
    <path
       id="path2"
       style="fill:#a6adc8;stroke-width:0.730001;stroke-linecap:round;fill-opacity:1;opacity:1"
       d="M 4.2333333,0 C 2.0267817,0.0045901 0.19381709,1.7032872 0.0217041,3.9031209 0.01016834,4.0128667 0.00292811,4.1230217 0,4.2333333 0.00250738,4.3280654 0.00819499,4.4226866 0.01705322,4.5170369 0.06484177,5.228114 0.29112139,5.9127052 0.67129582,6.5089954 0.82542385,6.7507397 1.14113,6.7643306 1.3439836,6.5614769 1.4536467,6.4518139 1.4573994,6.2568669 1.3659568,6.1167462 1.0749054,5.6707576 0.89060854,5.1620109 0.82940674,4.6302083 H 3.1123696 A 0.39323367,0.39323367 157.5 0 0 3.3904278,4.5150328 l 0.023807,-0.023807 A 0.38355374,0.38355374 67.5 0 0 3.1430217,3.8364583 l -2.31413173,0 C 1.0298162,2.106633 2.4918888,0.7999112 4.2333333,0.79375 4.9052945,0.79399541 5.5601086,0.99099552 6.1183068,1.357068 6.2605775,1.4503707 6.4656457,1.439815 6.5859907,1.31947 6.7775916,1.1278691 6.7623126,0.82739754 6.5313638,0.67810547 5.8496011,0.23739403 5.0521299,2.4727791e-5 4.2333333,0 Z"
       inkscape:path-effect="#path-effect35"
       inkscape:original-d="M 4.2333333 0 A 4.2333331 4.2333331 0 0 0 0.021704102 3.9031209 A 4.2333331 4.2333331 0 0 0 0 4.2333333 A 4.2333331 4.2333331 0 0 0 0.017053223 4.5170369 A 4.2333331 4.2333331 0 0 0 0.97668457 6.928776 L 1.5425415 6.3629191 A 3.4395833 3.4395833 0 0 1 0.82940674 4.6302083 L 3.2752523 4.6302083 L 4.0690023 3.8364583 L 0.82888997 3.8364583 A 3.4395833 3.4395833 0 0 1 4.2333333 0.79375 A 3.4395833 3.4395833 0 0 1 6.3680868 1.5373739 L 6.9329102 0.97255046 A 4.2333331 4.2333331 0 0 0 4.2333333 0 z " />
  </g>
</svg>
