<?xml version="1.0" encoding="UTF-8" standalone="no"?>
<!-- Created with Inkscape (http://www.inkscape.org/) -->

<svg
   width="32"
   height="32"
   viewBox="0 0 8.4666666 8.4666666"
   version="1.1"
   id="svg1"
   xml:space="preserve"
   inkscape:version="1.3 (0e150ed6c4, 2023-07-21)"
   sodipodi:docname="music.svg"
   xmlns:inkscape="http://www.inkscape.org/namespaces/inkscape"
   xmlns:sodipodi="http://sodipodi.sourceforge.net/DTD/sodipodi-0.dtd"
   xmlns="http://www.w3.org/2000/svg"
   xmlns:svg="http://www.w3.org/2000/svg"><sodipodi:namedview
     id="namedview1"
     pagecolor="#595959"
     bordercolor="#eeeeee"
     borderopacity="1"
     inkscape:showpageshadow="0"
     inkscape:pageopacity="0"
     inkscape:pagecheckerboard="0"
     inkscape:deskcolor="#3a3a3a"
     inkscape:document-units="px"
     inkscape:zoom="14.285044"
     inkscape:cx="9.0304239"
     inkscape:cy="19.285905"
     inkscape:window-width="1322"
     inkscape:window-height="688"
     inkscape:window-x="0"
     inkscape:window-y="0"
     inkscape:window-maximized="1"
     inkscape:current-layer="layer1" /><defs
     id="defs1"><inkscape:path-effect
       effect="fillet_chamfer"
       id="path-effect1"
       is_visible="true"
       lpeversion="1"
       nodesatellites_param="F,0,1,1,0,0.27122766,0,1 @ F,0,1,1,0,0.27122766,0,1 @ F,0,0,1,0,0,0,1 @ F,0,0,1,0,0,0,1 @ F,0,0,1,0,0,0,1 @ F,0,0,1,0,0,0,1 @ F,0,0,1,0,0,0,1 @ F,0,0,1,0,0,0,1 @ F,0,0,1,0,0,0,1 @ F,0,0,1,0,0,0,1 @ F,0,0,1,0,0,0,1 @ F,0,0,1,0,0,0,1 @ F,0,0,1,0,0,0,1 @ F,0,0,1,0,0,0,1 @ F,0,0,1,0,0,0,1 @ F,0,0,1,0,0,0,1 @ F,0,0,1,0,0,0,1 @ F,0,0,1,0,0,0,1 @ F,0,0,1,0,0,0,1 @ F,0,0,1,0,0,0,1 @ F,0,0,1,0,0,0,1 @ F,0,0,1,0,0,0,1 @ F,0,0,1,0,0,0,1 | F,0,0,1,0,0,0,1 @ F,0,0,1,0,0,0,1 @ F,0,0,1,0,0,0,1 @ F,0,0,1,0,0,0,1 @ F,0,0,1,0,0,0,1 @ F,0,0,1,0,0,0,1 @ F,0,0,1,0,0,0,1 | F,0,0,1,0,0,0,1 @ F,0,0,1,0,0,0,1 @ F,0,0,1,0,0,0,1 @ F,0,0,1,0,0,0,1 @ F,0,0,1,0,0,0,1 @ F,0,0,1,0,0,0,1"
       radius="0"
       unit="px"
       method="auto"
       mode="F"
       chamfer_steps="1"
       flexible="false"
       use_knot_distance="true"
       apply_no_radius="true"
       apply_with_radius="true"
       only_selected="false"
       hide_knots="false" /></defs><g
     inkscape:label="Layer 1"
     inkscape:groupmode="layer"
     id="layer1"><path
       id="rect1"
       style="fill:#ffffff;stroke-width:0.542095;stroke-linecap:round"
       d="M 5.9908101,2.0265739 3.433541,2.453937 A 0.32301408,0.32301408 130.49315 0 0 3.1637807,2.7698622 L 3.1483689,4.6338324 C 3.0460142,4.5884608 2.9849286,4.5760845 2.8402268,4.5708979 2.7110174,4.5662669 2.6690084,4.5696091 2.5835006,4.5912365 2.1281511,4.7063847 1.8187141,5.1219411 1.8509291,5.5751618 c 0.00961,0.1351332 0.034332,0.2285523 0.092483,0.3499766 0.1322314,0.2761119 0.3881724,0.4738109 0.6899757,0.5330235 0.089534,0.017566 0.2641052,0.014635 0.3649427,-0.00614 0.3142475,-0.064737 0.576331,-0.283988 0.6984179,-0.5844454 0.066046,-0.1625413 0.065621,-0.1544777 0.065621,-1.5461136 0,-0.7085681 0.00421,-1.2877887 0.00921,-1.2886198 L 5.6657508,2.7181712 5.7129558,4.2224566 5.6738138,4.1994316 C 5.5604932,4.1332282 5.256427,4.1208239 5.082456,4.1752556 4.7542711,4.2779377 4.5158983,4.5207993 4.4227963,4.8471952 c -0.035637,0.1249356 -0.038045,0.36149 -0.00499,0.4816016 0.04907,0.1782865 0.1378629,0.3265788 0.2732274,0.4558905 0.3492858,0.333667 0.8770605,0.3547556 1.2602226,0.050271 C 6.0977464,5.7185487 6.2065807,5.5537344 6.2693831,5.3537402 l 0.028781,-0.091715 V 3.7577397 L 6.2644105,2.2530265 A 0.23493488,0.23493488 39.613768 0 0 5.9908101,2.0265739 Z M 5.3449384,4.7834934 c 0.072396,-8.67e-5 0.1047533,0.0061 0.1427536,0.026478 C 5.6281532,4.885309 5.6927708,5.0346293 5.6492492,5.183357 5.6092932,5.3198993 5.4939637,5.4037361 5.3472409,5.4028598 5.3029779,5.4025987 5.2473134,5.3938837 5.2236746,5.3836724 5.1692984,5.3601848 5.0932024,5.2871632 5.0648037,5.2313252 4.9906966,5.0856138 5.0443247,4.9119083 5.1918237,4.8207168 c 0.052393,-0.032392 0.070704,-0.037125 0.1531147,-0.037223 z m -2.53426,0.421737 c 0.1042481,0 0.1803218,0.037092 0.2417601,0.1181939 0.1008011,0.1330631 0.089513,0.3060576 -0.02763,0.4205858 -0.057566,0.056281 -0.1176306,0.081198 -0.2079904,0.085959 -0.064559,0.0034 -0.091486,-0.00163 -0.1412186,-0.025327 C 2.5606523,5.7498731 2.4937039,5.6456757 2.4933203,5.5199024 2.4927691,5.3373495 2.6260835,5.2052304 2.8106784,5.2052304 Z"
       sodipodi:nodetypes="cccsccsscssscccsscssccccscscssssssscccs"
       inkscape:path-effect="#path-effect1"
       inkscape:original-d="M 6.2583279,1.9818671 3.1660232,2.4986438 3.1483689,4.6338324 C 3.0460142,4.5884608 2.9849286,4.5760845 2.8402268,4.5708979 2.7110174,4.5662669 2.6690084,4.5696091 2.5835006,4.5912365 2.1281511,4.7063847 1.8187141,5.1219411 1.8509291,5.5751618 c 0.00961,0.1351332 0.034332,0.2285523 0.092483,0.3499766 0.1322314,0.2761119 0.3881724,0.4738109 0.6899757,0.5330235 0.089534,0.017566 0.2641052,0.014635 0.3649427,-0.00614 0.3142475,-0.064737 0.576331,-0.283988 0.6984179,-0.5844454 0.066046,-0.1625413 0.065621,-0.1544777 0.065621,-1.5461136 0,-0.7085681 0.00421,-1.2877887 0.00921,-1.2886198 L 5.6657508,2.7181712 5.7129558,4.2224566 5.6738138,4.1994316 C 5.5604932,4.1332282 5.256427,4.1208239 5.082456,4.1752556 4.7542711,4.2779377 4.5158983,4.5207993 4.4227963,4.8471952 c -0.035637,0.1249356 -0.038045,0.36149 -0.00499,0.4816016 0.04907,0.1782865 0.1378629,0.3265788 0.2732274,0.4558905 0.3492858,0.333667 0.8770605,0.3547556 1.2602226,0.050271 C 6.0977464,5.7185487 6.2065807,5.5537344 6.2693831,5.3537402 l 0.028781,-0.091715 V 3.7577397 Z M 5.3449384,4.7834934 c 0.072396,-8.67e-5 0.1047533,0.0061 0.1427536,0.026478 C 5.6281532,4.885309 5.6927708,5.0346293 5.6492492,5.183357 5.6092932,5.3198993 5.4939637,5.4037361 5.3472409,5.4028598 5.3029779,5.4025987 5.2473134,5.3938837 5.2236746,5.3836724 5.1692984,5.3601848 5.0932024,5.2871632 5.0648037,5.2313252 4.9906966,5.0856138 5.0443247,4.9119083 5.1918237,4.8207168 c 0.052393,-0.032392 0.070704,-0.037125 0.1531147,-0.037223 z m -2.53426,0.421737 c 0.1042481,0 0.1803218,0.037092 0.2417601,0.1181939 0.1008011,0.1330631 0.089513,0.3060576 -0.02763,0.4205858 -0.057566,0.056281 -0.1176306,0.081198 -0.2079904,0.085959 -0.064559,0.0034 -0.091486,-0.00163 -0.1412186,-0.025327 C 2.5606523,5.7498731 2.4937039,5.6456757 2.4933203,5.5199024 2.4927691,5.3373495 2.6260835,5.2052304 2.8106784,5.2052304 Z"
       transform="matrix(0.75570647,0,0,0.75570647,0.99510455,1.0373963)" /></g></svg>
