<?xml version="1.0" encoding="UTF-8" standalone="no"?>
<!-- Created with Inkscape (http://www.inkscape.org/) -->

<svg
   width="32"
   height="32"
   viewBox="0 0 8.4666665 8.4666666"
   version="1.1"
   id="svg1"
   sodipodi:docname="workspace-active.svg"
   inkscape:version="1.3.2 (091e20ef0f, 2023-11-25)"
   xmlns:inkscape="http://www.inkscape.org/namespaces/inkscape"
   xmlns:sodipodi="http://sodipodi.sourceforge.net/DTD/sodipodi-0.dtd"
   xmlns="http://www.w3.org/2000/svg"
   xmlns:svg="http://www.w3.org/2000/svg">
  <sodipodi:namedview
     id="namedview1"
     pagecolor="#505050"
     bordercolor="#eeeeee"
     borderopacity="1"
     inkscape:showpageshadow="0"
     inkscape:pageopacity="0"
     inkscape:pagecheckerboard="0"
     inkscape:deskcolor="#d1d1d1"
     inkscape:document-units="mm"
     inkscape:zoom="15.1875"
     inkscape:cx="16"
     inkscape:cy="16.987654"
     inkscape:window-width="1332"
     inkscape:window-height="693"
     inkscape:window-x="0"
     inkscape:window-y="0"
     inkscape:window-maximized="1"
     inkscape:current-layer="layer1" />
  <defs
     id="defs1" />
  <g
     inkscape:label="Layer 1"
     inkscape:groupmode="layer"
     id="layer1">
    <path
       d="m 2.5823334,4.3179999 2.0658675,3.5729347 q 0.00847,0 -0.9398004,0.016933 L 3.1411336,6.9426676 2.5992667,7.907868 H 2.1166665 L 1.8880664,7.4845345 2.6585334,6.1129339 2.1166665,5.1477336 Z M 3.3274003,2.8447993 1.2530662,6.4346674 0.77893266,5.6049337 1.3377329,4.6397333 H 0.22859911 L -9.8546343e-7,4.2333332 0.24553245,3.8099997 1.8203331,3.826933 2.3791333,2.8617326 Z M 3.4882671,5.7065338 H 7.6030687 L 7.1458685,6.5362674 H 6.0367348 L 6.5786016,7.4845345 6.3500015,7.8909346 H 5.8674013 L 5.0969344,6.5362674 H 3.9708673 Z M 5.8843347,4.1486665 3.8184672,0.57573173 4.7752009,0.55879839 5.3255345,1.5239988 5.8674013,0.55879839 H 6.3500015 L 6.5786016,0.96519855 5.8081347,2.3537324 6.3669349,3.3189328 Z M 2.5823334,4.3179999 4.6482009,7.8909346 q 0.00847,0 -0.9398004,0.016933 L 3.1411336,6.9426676 2.5992667,7.907868 H 2.1166665 L 1.8880664,7.4845345 2.6585334,6.1129339 2.1166665,5.1477336 Z M 4.978401,2.7431993 H 0.86359936 L 1.3207995,1.9134656 2.4299333,1.9303989 1.8711331,0.96519855 2.1166665,0.55879839 h 0.4826002 l 0.770467,1.35466721 1.1260671,0.016933 z M 5.1392677,5.6049337 7.2136019,2.031999 7.6877354,2.8617326 7.1289352,3.8099997 H 8.238069 L 8.4666691,4.2333332 8.2211356,4.6397333 6.646335,4.6228 6.0875348,5.6049337 Z"
       id="text1"
       style="font-weight:800;font-size:8.46667px;font-family:Mikhak;-inkscape-font-specification:'Mikhak Ultra-Bold';fill:#36a3d9;stroke-width:0.47037;stroke-linecap:round;fill-opacity:1"
       aria-label="" />
  </g>
</svg>
