<?xml version="1.0" encoding="UTF-8" standalone="no"?>
<!-- Created with Inkscape (http://www.inkscape.org/) -->

<svg
   width="32"
   height="32"
   viewBox="0 0 8.4666665 8.4666666"
   version="1.1"
   id="svg1"
   sodipodi:docname="workspace.svg"
   inkscape:version="1.3.2 (091e20ef0f, 2023-11-25)"
   xmlns:inkscape="http://www.inkscape.org/namespaces/inkscape"
   xmlns:sodipodi="http://sodipodi.sourceforge.net/DTD/sodipodi-0.dtd"
   xmlns="http://www.w3.org/2000/svg"
   xmlns:svg="http://www.w3.org/2000/svg">
  <sodipodi:namedview
     id="namedview1"
     pagecolor="#505050"
     bordercolor="#eeeeee"
     borderopacity="1"
     inkscape:showpageshadow="0"
     inkscape:pageopacity="0"
     inkscape:pagecheckerboard="0"
     inkscape:deskcolor="#d1d1d1"
     inkscape:document-units="mm"
     inkscape:zoom="15.1875"
     inkscape:cx="15.967078"
     inkscape:cy="16.987654"
     inkscape:window-width="1332"
     inkscape:window-height="693"
     inkscape:window-x="0"
     inkscape:window-y="0"
     inkscape:window-maximized="1"
     inkscape:current-layer="layer1" />
  <defs
     id="defs1" />
  <g
     inkscape:label="Layer 1"
     inkscape:groupmode="layer"
     id="layer1">
    <path
       d="m 4.2380706,-1.7211823e-6 q 0.1608667,0 0.2709335,0.1185333911823 0.1185333,0.11006671 0.1185333,0.27940011 V 1.1599321 L 5.0085376,0.77893193 q 0.1100667,-0.11006671 0.2794001,-0.11006671 0.1693334,0 0.2878668,0.11006671 0.1185334,0.11006671 0.1185334,0.27940017 0,0.1693334 -0.1185334,0.2794001 L 4.6275374,2.2775326 V 3.5475331 L 5.7197379,2.9125328 6.0668713,1.625599 Q 6.1092043,1.4647322 6.2531381,1.3885322 6.3970715,1.3038652 6.5579382,1.3461992 6.7188049,1.3885322 6.795005,1.5324659 6.879672,1.6679326 6.837338,1.8287993 L 6.7018716,2.3452659 7.3114718,1.9981324 q 0.1439334,-0.084667 0.2963335,-0.042333 0.1608667,0.042333 0.2455334,0.1862667 0.084667,0.1439334 0.042333,0.3048002 -0.042333,0.1524 -0.1862668,0.2370667 L 7.0913384,3.0395329 7.616272,3.1749996 q 0.1608667,0.042333 0.2370667,0.1862667 0.084667,0.1354667 0.042333,0.2963335 -0.042333,0.1608667 -0.1862664,0.2455334 -0.1354667,0.084667 -0.2963334,0.042333 L 6.126138,3.5983331 5.0254709,4.2333333 6.126138,4.8598669 7.4046052,4.5127334 q 0.1608667,-0.042333 0.3048001,0.042333 0.1439334,0.084667 0.1862668,0.2455334 0.042333,0.1608668 -0.042333,0.3048001 Q 7.7771391,5.2408667 7.6162724,5.2832 L 7.0913384,5.4271338 7.7094053,5.7742673 Q 7.8533387,5.858934 7.8956721,6.0198007 7.9380054,6.1806674 7.8533387,6.3246008 7.768672,6.4685342 7.6078053,6.5108676 7.4554052,6.5532009 7.3114718,6.4685342 L 6.7018716,6.1129341 6.8373383,6.629401 Q 6.8796717,6.7902677 6.795005,6.9342011 6.7188049,7.0781345 6.5579382,7.1204678 6.3970715,7.1628012 6.2531381,7.0866011 6.1092047,7.0019344 6.0668713,6.8410677 L 5.7197379,5.5541339 4.6275374,4.9191336 v 1.2615338 l 0.9482671,0.9482671 q 0.1185334,0.1100667 0.1185334,0.2794001 0,0.1693334 -0.1185334,0.2794001 -0.1185334,0.1100667 -0.2878668,0.1100667 -0.1693334,0 -0.2794001,-0.1100667 L 4.6360041,7.3067346 v 0.7620003 q 0,0.1693334 -0.1185334,0.2794001 -0.1100667,0.1185334 -0.2794001,0.1185334 -0.1693334,0 -0.2878668,-0.1185334 Q 3.8401371,8.2380683 3.8401371,8.0687349 V 7.3067346 L 3.459137,7.6877347 q -0.1185334,0.1100667 -0.2794001,0.1100667 -0.1608668,0 -0.2794002,-0.1100667 Q 2.7818034,7.577668 2.7818034,7.4083346 q 0,-0.1693334 0.1185333,-0.2878668 L 3.8401371,6.1806674 V 4.9191336 L 2.7479367,5.5541339 2.4008032,6.832601 Q 2.3584699,6.9934678 2.2145365,7.0781345 2.0706031,7.1628012 1.9097364,7.1204678 1.7488696,7.0781345 1.6642029,6.9342011 1.5880029,6.7902677 1.6303362,6.629401 L 1.765803,6.1129341 1.1562027,6.4685342 Q 1.0122693,6.5532009 0.85140263,6.5108676 0.69900252,6.4685342 0.61433582,6.3246008 0.52966912,6.1806674 0.57200252,6.0198007 0.61433582,5.858934 0.75826922,5.7742673 L 1.3763361,5.4271338 0.85140263,5.2832004 Q 0.69053592,5.2408671 0.60586922,5.1054003 0.52966912,4.961467 0.57200252,4.8006002 0.61433582,4.6397335 0.74980262,4.5635335 0.89373593,4.4788668 1.0546027,4.5212001 L 2.3415365,4.8598669 3.4422036,4.2333333 2.3415365,3.5983331 1.0546027,3.9454666 Q 0.89373593,3.9877999 0.74980262,3.9031332 0.61433582,3.8184665 0.57200252,3.6575998 0.52966912,3.496733 0.60586922,3.3612663 0.69053592,3.2173329 0.85140263,3.1749996 L 1.3763361,3.0395329 0.75826922,2.6839327 Q 0.61433582,2.599266 0.57200252,2.446866 0.52966912,2.2859992 0.61433582,2.1420658 0.69900252,1.9981324 0.85140263,1.9557991 1.0122693,1.9134657 1.1562027,1.9981324 L 1.765803,2.3452659 1.6303362,1.828799 Q 1.5880029,1.6679323 1.6642029,1.5239989 1.7488696,1.3800655 1.9097364,1.3377322 2.0706031,1.2953988 2.2145365,1.3800655 2.3584699,1.4647322 2.4008032,1.625599 L 2.7479367,2.9125328 3.8401371,3.5390664 V 2.2775326 L 2.8918701,1.3377322 Q 2.7818034,1.2276655 2.7818034,1.0583321 q 0,-0.16933346 0.1100667,-0.27940017 0.1100667,-0.11006671 0.2794001,-0.11006671 0.1693334,0 0.2878668,0.11006671 L 3.8316704,1.1599321 V 0.39793178 q 0,-0.1693334 0.1185334,-0.27940011 Q 4.0687372,-1.7211823e-6 4.2296039,-1.7211823e-6 Z"
       id="text2"
       style="font-weight:800;font-size:8.46667px;font-family:Mikhak;-inkscape-font-specification:'Mikhak Ultra-Bold';fill:#bac2de;stroke-width:0.47037;stroke-linecap:round;fill-opacity:1"
       aria-label="" />
  </g>
</svg>
