<?xml version="1.0" encoding="UTF-8" standalone="no"?>
<!-- Created with Inkscape (http://www.inkscape.org/) -->

<svg
   width="32"
   height="32"
   viewBox="0 0 8.4666666 8.4666666"
   version="1.1"
   id="svg1"
   sodipodi:docname="volume-0.svg"
   inkscape:version="1.3 (0e150ed6c4, 2023-07-21)"
   xmlns:inkscape="http://www.inkscape.org/namespaces/inkscape"
   xmlns:sodipodi="http://sodipodi.sourceforge.net/DTD/sodipodi-0.dtd"
   xmlns="http://www.w3.org/2000/svg"
   xmlns:svg="http://www.w3.org/2000/svg">
  <sodipodi:namedview
     id="namedview1"
     pagecolor="#505050"
     bordercolor="#eeeeee"
     borderopacity="1"
     inkscape:showpageshadow="0"
     inkscape:pageopacity="0"
     inkscape:pagecheckerboard="0"
     inkscape:deskcolor="#343434"
     inkscape:document-units="px"
     inkscape:zoom="15.15625"
     inkscape:cx="15.96701"
     inkscape:cy="16"
     inkscape:window-width="1322"
     inkscape:window-height="688"
     inkscape:window-x="0"
     inkscape:window-y="0"
     inkscape:window-maximized="1"
     inkscape:current-layer="layer1" />
  <defs
     id="defs1">
    <inkscape:path-effect
       effect="fillet_chamfer"
       id="path-effect17"
       is_visible="true"
       lpeversion="1"
       nodesatellites_param="F,0,1,1,0,0.38824106,0,1 @ F,0,1,1,0,0.38824106,0,1 @ F,0,1,1,0,0.38824106,0,1 @ F,0,0,1,0,0.38824106,0,1"
       radius="0"
       unit="px"
       method="auto"
       mode="F"
       chamfer_steps="1"
       flexible="false"
       use_knot_distance="true"
       apply_no_radius="true"
       apply_with_radius="true"
       only_selected="false"
       hide_knots="false" />
  </defs>
  <g
     inkscape:label="Layer 1"
     inkscape:groupmode="layer"
     id="layer1">
    <path
       id="path1"
       style="opacity:1;fill:#585b70;stroke-width:0.730001;stroke-linecap:round;fill-opacity:1"
       d="M 4.2333333 0 A 4.2333331 4.2333331 0 0 0 0 4.2333333 A 4.2333331 4.2333331 0 0 0 4.2333333 8.4666666 A 4.2333331 4.2333331 0 0 0 8.4666666 4.2333333 A 4.2333331 4.2333331 0 0 0 4.2333333 0 z M 4.2333333 0.79374999 A 3.4395833 3.4395833 0 0 1 7.6729166 4.2333333 A 3.4395833 3.4395833 0 0 1 4.2333333 7.6729166 A 3.4395833 3.4395833 0 0 1 0.79374999 4.2333333 A 3.4395833 3.4395833 0 0 1 4.2333333 0.79374999 z " />
    <path
       d="m 1.3230859,4.2233574 c -2.36e-5,0.00665 -2.36e-5,0.013305 1e-7,0.019957 7.625e-4,0.2142432 0.2020741,0.3868938 0.4164938,0.3868938 h 4.987507 c 0.2144197,0 0.4155552,-0.1726517 0.4166044,-0.3869033 3.25e-5,-0.00664 4.16e-5,-0.013289 2.71e-5,-0.019934 C 7.1432518,4.0091315 6.9420155,3.8364583 6.7275958,3.8364583 l -4.988016,0 c -0.2144197,0 -0.4157317,0.172653 -0.4164939,0.3868991 z"
       style="opacity:1;fill:#585b70;stroke-width:0.734359;stroke-linecap:round"
       id="path17"
       inkscape:path-effect="#path-effect17"
       inkscape:original-d="m 1.3513387,3.8364583 c -0.037694,0.2628177 -0.037694,0.5309323 0,0.79375 1.9213297,0 3.8426595,0 5.7639892,0 0.037307,-0.2627841 0.038242,-0.5309637 5.09e-4,-0.79375 -1.9214994,0 -3.8429988,0 -5.7644982,0 z" />
  </g>
</svg>
