<?xml version="1.0" encoding="UTF-8" standalone="no"?>
<!-- Created with Inkscape (http://www.inkscape.org/) -->

<svg
   width="32"
   height="32"
   viewBox="0 0 8.4666666 8.4666666"
   version="1.1"
   id="svg1"
   sodipodi:docname="volume-2.svg"
   inkscape:version="1.3 (0e150ed6c4, 2023-07-21)"
   xmlns:inkscape="http://www.inkscape.org/namespaces/inkscape"
   xmlns:sodipodi="http://sodipodi.sourceforge.net/DTD/sodipodi-0.dtd"
   xmlns="http://www.w3.org/2000/svg"
   xmlns:svg="http://www.w3.org/2000/svg">
  <sodipodi:namedview
     id="namedview1"
     pagecolor="#505050"
     bordercolor="#eeeeee"
     borderopacity="1"
     inkscape:showpageshadow="0"
     inkscape:pageopacity="0"
     inkscape:pagecheckerboard="0"
     inkscape:deskcolor="#343434"
     inkscape:document-units="px"
     inkscape:zoom="15.15625"
     inkscape:cx="15.934021"
     inkscape:cy="16"
     inkscape:window-width="847"
     inkscape:window-height="688"
     inkscape:window-x="0"
     inkscape:window-y="0"
     inkscape:window-maximized="1"
     inkscape:current-layer="layer1" />
  <defs
     id="defs1" />
  <g
     inkscape:label="Layer 1"
     inkscape:groupmode="layer"
     id="layer1">
    <path
       id="path1"
       style="opacity:1;fill:#893bff;stroke-width:0.730001;stroke-linecap:round;fill-opacity:1"
       d="M 4.2333333 0 A 4.2333331 4.2333331 0 0 0 0 4.2333333 A 4.2333331 4.2333331 0 0 0 4.2333333 8.4666666 A 4.2333331 4.2333331 0 0 0 8.4666666 4.2333333 A 4.2333331 4.2333331 0 0 0 4.2333333 0 z M 4.2333333 0.79374999 A 3.4395833 3.4395833 0 0 1 7.6729166 4.2333333 A 3.4395833 3.4395833 0 0 1 4.2333333 7.6729166 A 3.4395833 3.4395833 0 0 1 0.79374999 4.2333333 A 3.4395833 3.4395833 0 0 1 4.2333333 0.79374999 z " />
    <path
       id="path6"
       style="opacity:0.25;fill:#893bff;fill-opacity:1;stroke-width:0.501876;stroke-linecap:round"
       d="M 4.2333333 1.3229167 A 2.9104166 2.9104166 0 0 0 1.3229167 4.2333333 A 2.9104166 2.9104166 0 0 0 4.2333333 7.1437499 A 2.9104166 2.9104166 0 0 0 7.1437499 4.2333333 A 2.9104166 2.9104166 0 0 0 4.2333333 1.3229167 z M 4.2333333 2.1166667 A 2.1166666 2.1166666 0 0 1 6.35 4.2333333 A 2.1166666 2.1166666 0 0 1 4.2333333 6.35 A 2.1166666 2.1166666 0 0 1 2.1166667 4.2333333 A 2.1166666 2.1166666 0 0 1 4.2333333 2.1166667 z " />
    <path
       id="circle7"
       style="opacity:0.5;fill:#893bff;fill-opacity:1;stroke-width:0.296563;stroke-linecap:round"
       d="M 4.2333333 2.5135416 A 1.7197917 1.7197917 0 0 0 2.5135416 4.2333333 A 1.7197917 1.7197917 0 0 0 4.2333333 5.953125 A 1.7197917 1.7197917 0 0 0 5.953125 4.2333333 A 1.7197917 1.7197917 0 0 0 4.2333333 2.5135416 z M 4.2333333 3.3072916 A 0.92604166 0.92604166 0 0 1 5.159375 4.2333333 A 0.92604166 0.92604166 0 0 1 4.2333333 5.159375 A 0.92604166 0.92604166 0 0 1 3.3072916 4.2333333 A 0.92604166 0.92604166 0 0 1 4.2333333 3.3072916 z " />
    <circle
       style="opacity:1;fill:#893bff;fill-opacity:1;stroke-width:0.0912503;stroke-linecap:round"
       id="circle9"
       cx="4.2333331"
       cy="4.2333331"
       r="0.52916664" />
  </g>
</svg>
