<?xml version="1.0" encoding="UTF-8" standalone="no"?>
<!-- Created with Inkscape (http://www.inkscape.org/) -->

<svg
   width="32"
   height="32"
   viewBox="0 0 8.4666666 8.4666666"
   version="1.1"
   id="svg1"
   sodipodi:docname="volume-0.svg"
   inkscape:version="1.3 (0e150ed6c4, 2023-07-21)"
   xmlns:inkscape="http://www.inkscape.org/namespaces/inkscape"
   xmlns:sodipodi="http://sodipodi.sourceforge.net/DTD/sodipodi-0.dtd"
   xmlns="http://www.w3.org/2000/svg"
   xmlns:svg="http://www.w3.org/2000/svg">
  <sodipodi:namedview
     id="namedview1"
     pagecolor="#505050"
     bordercolor="#eeeeee"
     borderopacity="1"
     inkscape:showpageshadow="0"
     inkscape:pageopacity="0"
     inkscape:pagecheckerboard="0"
     inkscape:deskcolor="#343434"
     inkscape:document-units="px"
     inkscape:zoom="13.632241"
     inkscape:cx="18.485589"
     inkscape:cy="14.927846"
     inkscape:window-width="1322"
     inkscape:window-height="688"
     inkscape:window-x="0"
     inkscape:window-y="0"
     inkscape:window-maximized="1"
     inkscape:current-layer="layer1" />
  <defs
     id="defs1">
    <inkscape:path-effect
       effect="fillet_chamfer"
       id="path-effect5"
       is_visible="true"
       lpeversion="1"
       nodesatellites_param="F,0,0,1,0,0.40829239,0,1 @ F,0,1,1,0,0.40829239,0,1 @ F,0,1,1,0,0.40829239,0,1 @ F,0,1,1,0,0.40829239,0,1"
       radius="0"
       unit="px"
       method="auto"
       mode="F"
       chamfer_steps="1"
       flexible="false"
       use_knot_distance="true"
       apply_no_radius="true"
       apply_with_radius="true"
       only_selected="false"
       hide_knots="false" />
    <inkscape:path-effect
       effect="fillet_chamfer"
       id="path-effect39"
       is_visible="true"
       lpeversion="1"
       nodesatellites_param="F,0,0,1,0,0.65460207,0,1 @ F,0,0,1,0,0.23497349,0,1 @ F,0,0,1,0,0,0,1 @ F,0,0,1,0,0.23497349,0,1 @ F,0,1,1,0,0.65460207,0,1 @ F,0,0,1,0,0,0,1"
       radius="0"
       unit="px"
       method="auto"
       mode="F"
       chamfer_steps="1"
       flexible="false"
       use_knot_distance="true"
       apply_no_radius="true"
       apply_with_radius="true"
       only_selected="false"
       hide_knots="false" />
    <inkscape:path-effect
       effect="fillet_chamfer"
       id="path-effect38"
       is_visible="true"
       lpeversion="1"
       nodesatellites_param="F,0,0,1,0,0.83710851,0,1 @ F,0,0,1,0,0.15439472,0,1 @ F,0,0,1,0,0,0,1 @ F,0,0,1,0,0.15439472,0,1 @ F,0,1,1,0,0.83710851,0,1 @ F,0,0,1,0,0,0,1"
       radius="0"
       unit="px"
       method="auto"
       mode="F"
       chamfer_steps="1"
       flexible="false"
       use_knot_distance="true"
       apply_no_radius="true"
       apply_with_radius="true"
       only_selected="false"
       hide_knots="false" />
    <inkscape:path-effect
       effect="fillet_chamfer"
       id="path-effect37"
       is_visible="true"
       lpeversion="1"
       nodesatellites_param="F,0,0,1,0,0.55143927,0,1 @ F,0,0,1,0,0.27609724,0,1 @ F,0,0,1,0,0,0,1 @ F,0,0,1,0,0.27609724,0,1 @ F,0,1,1,0,0.55143927,0,1 @ F,0,0,1,0,0,0,1"
       radius="0"
       unit="px"
       method="auto"
       mode="F"
       chamfer_steps="1"
       flexible="false"
       use_knot_distance="true"
       apply_no_radius="true"
       apply_with_radius="true"
       only_selected="false"
       hide_knots="false" />
    <inkscape:path-effect
       effect="fillet_chamfer"
       id="path-effect36"
       is_visible="true"
       lpeversion="1"
       nodesatellites_param="F,0,0,1,0,0.17952407,0,1 @ F,0,0,1,0,0.19721075,0,1 @ F,0,0,1,0,0,0,1 @ F,0,0,1,0,0.19721075,0,1 @ F,0,0,1,0,0.17952407,0,1 @ F,0,0,1,0,0.51933117,0,1 @ F,0,0,1,0,0.51933117,0,1 | F,0,0,1,0,0.10651215,0,1 @ F,0,0,1,0,0.10651215,0,1 @ F,0,1,1,0,0.087352849,0,1 @ F,0,0,1,0,0.11272873,0,1 @ F,0,0,1,0,0.13273539,0,1 @ F,0,0,1,0,0.087352849,0,1"
       radius="0"
       unit="px"
       method="auto"
       mode="F"
       chamfer_steps="1"
       flexible="false"
       use_knot_distance="true"
       apply_no_radius="true"
       apply_with_radius="true"
       only_selected="false"
       hide_knots="false" />
  </defs>
  <g
     inkscape:label="Layer 1"
     inkscape:groupmode="layer"
     id="layer1">
    <path
       id="path8"
       style="opacity:1;fill:#585b70;fill-opacity:1;stroke-width:0.524689;stroke-linecap:round"
       d="M 5.4058715 1.480013 C 5.1895833 1.4893666 5.0270833 1.6822243 5.0270833 1.9533691 C 5.0270833 2.0288137 5.0869277 2.1146456 5.1676432 2.1766113 L 5.7474528 1.5968017 C 5.7107507 1.5757499 5.6735439 1.5553999 5.6358317 1.5358236 C 5.5557648 1.4942612 5.4779676 1.4768951 5.4058715 1.480013 z M 6.8708984 2.7181803 L 6.2817871 3.3072916 C 6.4108935 3.5925489 6.4822219 3.9068344 6.4822916 4.2333333 C 6.48034 5.0883611 5.9945993 5.8609746 5.2420573 6.2383789 C 5.1261052 6.2965295 5.0270833 6.4377856 5.0270833 6.5675577 C 5.0270833 6.8992824 5.3155768 7.0975991 5.6358317 6.9313598 C 6.6268892 6.4169173 7.2750394 5.3851702 7.2760416 4.2333333 C 7.2755664 3.6871658 7.1299166 3.1679374 6.8708984 2.7181803 z " />
    <path
       id="circle4"
       style="opacity:1;fill:#585b70;fill-opacity:1;stroke-width:0.319377;stroke-linecap:round"
       d="M 5.9774129 3.6116658 L 5.2890828 4.2999959 C 5.2768497 4.4806658 5.218862 4.6544114 5.1206176 4.8053914 C 5.0741541 4.8767956 5.0270833 4.9976241 5.0270833 5.0828938 C 5.0270833 5.5344673 5.3914852 5.7433631 5.6782063 5.3857177 C 5.9355539 5.0647118 6.0839641 4.6606555 6.0854166 4.2333333 C 6.0851054 4.0177291 6.0476855 3.8078721 5.9774129 3.6116658 z " />
    <path
       id="path6"
       style="fill:#585b70;stroke-width:0.730001;stroke-linecap:round;fill-opacity:1;opacity:1"
       d="M 5.4038045 0.19068603 C 5.1882295 0.19881307 5.0270833 0.37990404 5.0270833 0.62735188 C 5.0270833 0.77402296 5.1476446 0.92050013 5.2927002 0.9673828 C 5.5564135 1.0526163 5.8052053 1.1678258 6.0347737 1.308964 L 6.0352905 1.308964 L 6.6119995 0.73225504 C 6.2917628 0.51455641 5.9387479 0.33858329 5.5603841 0.21394043 C 5.5061798 0.19608412 5.4535526 0.18881056 5.4038045 0.19068603 z M 7.7344116 1.8546671 L 7.1587361 2.4303426 C 7.4855574 2.958328 7.671701 3.578022 7.6729166 4.2333333 C 7.6669923 5.7293981 6.696663 7.0382679 5.2927002 7.4920491 C 5.1476249 7.5389395 5.0270833 7.6899312 5.0270833 7.8424153 C 5.0270833 8.145149 5.2713253 8.347945 5.5603841 8.2527262 C 7.2746806 7.6880201 8.466281 6.0789542 8.4666666 4.2333333 C 8.4664839 3.3586134 8.1985302 2.5370943 7.7344116 1.8546671 z " />
    <path
       id="path36"
       style="opacity:1;fill:#585b70;stroke-width:0.659172;stroke-linecap:round;fill-opacity:1"
       d="M 4.1113769 0.0051676432 C 3.797302 0.01730087 3.4747033 0.065002521 3.1765503 0.14882812 C 3.0811305 0.17565534 2.9940194 0.2817017 2.9739787 0.37878825 C 2.7147083 1.6348144 1.6585759 2.7061907 0.38498942 2.9739787 C 0.27825587 2.9964208 0.16016041 3.0914514 0.13229167 3.1967041 C 0.0775032 3.4036252 0.01049863 3.7506492 0 4.2333333 C 0.010541791 4.7180016 0.078065342 5.0658508 0.13280843 5.2720296 C 0.16047016 5.3762119 0.27841966 5.4702941 0.38498942 5.4926879 C 0.75597718 5.5706446 1.1071288 5.7185535 1.4267863 5.9174682 L 2.0009114 5.3433431 C 1.6822946 5.1250365 1.3317451 4.948023 0.95549723 4.8332967 C 0.8959064 4.8151261 0.83537297 4.7532047 0.82578938 4.6917033 C 0.78499378 4.4299026 0.78426852 4.0595918 0.82320556 3.7930501 C 0.83367325 3.721394 0.90460896 3.6488992 0.97461751 3.6271688 C 2.3556998 3.1984856 3.3193748 1.9925366 3.6369873 0.94206135 C 3.6509394 0.89591608 3.6996837 0.84988548 3.7470581 0.84077555 C 3.7964335 0.83128083 3.8364583 0.87238433 3.8364583 0.9312093 L 3.8364583 3.5077962 L 4.6302083 2.7140462 L 4.6302083 0.53795166 C 4.6302083 0.25113326 4.3977743 -0.0058963552 4.1113769 0.0051676432 z M 4.6302083 4.9588704 L 3.8364583 5.7526204 L 3.8364583 7.5354573 C 3.8364583 7.5942823 3.7892689 7.634158 3.7315551 7.6227905 C 3.6926041 7.6151185 3.6508774 7.5702877 3.6369873 7.5240885 C 3.5287531 7.1640974 3.3531024 6.8042941 3.12229 6.4667887 L 2.5491984 7.0398803 C 2.7498971 7.3626792 2.8973725 7.7164596 2.9739787 8.0873616 C 2.9940648 8.1846122 3.0811154 8.2910034 3.1765503 8.3178385 C 3.475823 8.4019902 3.7984836 8.4494165 4.1113769 8.461499 C 4.3977574 8.4725576 4.6302083 8.2155333 4.6302083 7.9287149 L 4.6302083 4.9588704 z " />
    <path
       id="path11"
       style="display:none;opacity:0.130325;fill:#893bff;fill-opacity:1;stroke-width:0.730001;stroke-linecap:round"
       d="M 4.2333333,0 A 4.2333331,4.2333331 0 0 0 0,4.2333333 4.2333331,4.2333331 0 0 0 4.2333333,8.4666666 4.2333331,4.2333331 0 0 0 8.4666666,4.2333333 4.2333331,4.2333331 0 0 0 4.2333333,0 Z m 0,0.79374999 A 3.4395833,3.4395833 0 0 1 7.6729166,4.2333333 3.4395833,3.4395833 0 0 1 4.2333333,7.6729166 3.4395833,3.4395833 0 0 1 0.79374999,4.2333333 3.4395833,3.4395833 0 0 1 4.2333333,0.79374999 Z" />
    <path
       id="rect1"
       style="opacity:1;fill:#a6adc8;fill-opacity:1;stroke-width:0.734559;stroke-linecap:round"
       d="m 5.5900048,-3.8063183 0,7.6067901 c 0,0.2254937 0.1823034,0.4274981 0.4077089,0.426919 C 6.2111224,4.2268423 6.38367,4.0259655 6.38367,3.8004718 v -7.6067901 c 0,-0.2254937 -0.1823034,-0.4274981 -0.4077089,-0.426919 -0.2134087,5.485e-4 -0.3859563,0.2014253 -0.3859563,0.426919 z"
       transform="rotate(45)"
       inkscape:path-effect="#path-effect5"
       inkscape:original-d="M 5.5900048 -4.2146107 L 5.5900048 4.2087642 A 4.2333331 4.2333331 0 0 0 6.38367 4.2087642 L 6.38367 -4.2146107 A 4.2333331 4.2333331 0 0 0 5.5900048 -4.2146107 z " />
  </g>
</svg>
