<?xml version="1.0" encoding="UTF-8" standalone="no"?>
<!-- Created with Inkscape (http://www.inkscape.org/) -->

<svg
   width="32"
   height="32"
   viewBox="0 0 8.4666666 8.4666666"
   version="1.1"
   id="svg1"
   sodipodi:docname="volume-50.svg"
   inkscape:version="1.3 (0e150ed6c4, 2023-07-21)"
   xmlns:inkscape="http://www.inkscape.org/namespaces/inkscape"
   xmlns:sodipodi="http://sodipodi.sourceforge.net/DTD/sodipodi-0.dtd"
   xmlns="http://www.w3.org/2000/svg"
   xmlns:svg="http://www.w3.org/2000/svg">
  <sodipodi:namedview
     id="namedview1"
     pagecolor="#505050"
     bordercolor="#eeeeee"
     borderopacity="1"
     inkscape:showpageshadow="0"
     inkscape:pageopacity="0"
     inkscape:pagecheckerboard="0"
     inkscape:deskcolor="#343434"
     inkscape:document-units="px"
     inkscape:zoom="15.15625"
     inkscape:cx="16"
     inkscape:cy="16.527835"
     inkscape:window-width="1322"
     inkscape:window-height="688"
     inkscape:window-x="0"
     inkscape:window-y="0"
     inkscape:window-maximized="1"
     inkscape:current-layer="layer1" />
  <defs
     id="defs1">
    <inkscape:path-effect
       effect="fillet_chamfer"
       id="path-effect39"
       is_visible="true"
       lpeversion="1"
       nodesatellites_param="F,0,0,1,0,0.65460207,0,1 @ F,0,0,1,0,0.23497349,0,1 @ F,0,0,1,0,0,0,1 @ F,0,0,1,0,0.23497349,0,1 @ F,0,1,1,0,0.65460207,0,1 @ F,0,0,1,0,0,0,1"
       radius="0"
       unit="px"
       method="auto"
       mode="F"
       chamfer_steps="1"
       flexible="false"
       use_knot_distance="true"
       apply_no_radius="true"
       apply_with_radius="true"
       only_selected="false"
       hide_knots="false" />
    <inkscape:path-effect
       effect="fillet_chamfer"
       id="path-effect38"
       is_visible="true"
       lpeversion="1"
       nodesatellites_param="F,0,0,1,0,0.83710851,0,1 @ F,0,0,1,0,0.15439472,0,1 @ F,0,0,1,0,0,0,1 @ F,0,0,1,0,0.15439472,0,1 @ F,0,1,1,0,0.83710851,0,1 @ F,0,0,1,0,0,0,1"
       radius="0"
       unit="px"
       method="auto"
       mode="F"
       chamfer_steps="1"
       flexible="false"
       use_knot_distance="true"
       apply_no_radius="true"
       apply_with_radius="true"
       only_selected="false"
       hide_knots="false" />
    <inkscape:path-effect
       effect="fillet_chamfer"
       id="path-effect37"
       is_visible="true"
       lpeversion="1"
       nodesatellites_param="F,0,0,1,0,0.55143927,0,1 @ F,0,0,1,0,0.27609724,0,1 @ F,0,0,1,0,0,0,1 @ F,0,0,1,0,0.27609724,0,1 @ F,0,1,1,0,0.55143927,0,1 @ F,0,0,1,0,0,0,1"
       radius="0"
       unit="px"
       method="auto"
       mode="F"
       chamfer_steps="1"
       flexible="false"
       use_knot_distance="true"
       apply_no_radius="true"
       apply_with_radius="true"
       only_selected="false"
       hide_knots="false" />
    <inkscape:path-effect
       effect="fillet_chamfer"
       id="path-effect36"
       is_visible="true"
       lpeversion="1"
       nodesatellites_param="F,0,0,1,0,0.17952407,0,1 @ F,0,0,1,0,0.19721075,0,1 @ F,0,0,1,0,0,0,1 @ F,0,0,1,0,0.19721075,0,1 @ F,0,0,1,0,0.17952407,0,1 @ F,0,0,1,0,0.51933117,0,1 @ F,0,0,1,0,0.51933117,0,1 | F,0,0,1,0,0.10651215,0,1 @ F,0,0,1,0,0.10651215,0,1 @ F,0,1,1,0,0.087352849,0,1 @ F,0,0,1,0,0.11272873,0,1 @ F,0,0,1,0,0.13273539,0,1 @ F,0,0,1,0,0.087352849,0,1"
       radius="0"
       unit="px"
       method="auto"
       mode="F"
       chamfer_steps="1"
       flexible="false"
       use_knot_distance="true"
       apply_no_radius="true"
       apply_with_radius="true"
       only_selected="false"
       hide_knots="false" />
  </defs>
  <g
     inkscape:label="Layer 1"
     inkscape:groupmode="layer"
     id="layer1">
    <path
       id="path8"
       style="opacity:0.5;fill:#893bff;fill-opacity:1;stroke-width:0.524689;stroke-linecap:round"
       d="m 5.0270833,1.9532308 c 0,0.097402 0.099197,0.2124098 0.2151471,0.2705589 C 5.9962456,2.6019302 6.4821086,3.3766024 6.4822916,4.2333333 6.48034,5.088362 5.9947783,5.8608192 5.2422355,6.2382238 5.1262833,6.2963745 5.0270833,6.4376312 5.0270833,6.5674035 c 0,0.331725 0.2886111,0.5299396 0.6088662,0.3637001 C 6.627008,6.4166606 7.2750394,5.3851713 7.2760416,4.2333333 7.2750394,3.0815051 6.6270192,2.0500237 5.635975,1.5355762 5.3157074,1.3693265 5.0270833,1.591704 5.0270833,1.9532308 Z"
       inkscape:path-effect="#path-effect39"
       inkscape:original-d="M 5.0270833 1.2986287 L 5.0270833 2.1295858 A 2.2489583 2.2489583 0 0 1 6.4822916 4.2333333 A 2.2489583 2.2489583 0 0 1 5.0270833 6.33243 L 5.0270833 7.1680379 A 3.0427084 3.0427084 0 0 0 7.2760416 4.2333333 A 3.0427084 3.0427084 0 0 0 5.0270833 1.2986287 z " />
    <path
       id="circle4"
       style="opacity:1;fill:#893bff;fill-opacity:1;stroke-width:0.319377;stroke-linecap:round"
       d="m 5.0270833,3.3997428 c 0,0.076234 0.046868,0.1894366 0.093333,0.2608444 0.1103482,0.1695845 0.1703872,0.3682697 0.1712504,0.5727461 -9.627e-4,0.2043007 -0.060997,0.4027953 -0.1712536,0.5722351 -0.046464,0.071404 -0.09333,0.1919378 -0.09333,0.2772076 0,0.4515739 0.3644205,0.6606107 0.6511419,0.302965 C 5.935573,5.0647347 6.0839641,4.6606559 6.0854166,4.2333333 6.0847978,3.804721 5.9363141,3.3992494 5.6782218,3.0773103 5.3915032,2.7196633 5.0270833,2.9374205 5.0270833,3.3997428 Z"
       inkscape:path-effect="#path-effect38"
       inkscape:original-d="M 5.0270833 2.5626343 L 5.0270833 3.5377685 A 1.0583333 1.0583333 0 0 1 5.2916666 4.2333333 A 1.0583333 1.0583333 0 0 1 5.0270833 4.9283813 L 5.0270833 5.900415 A 1.8520833 1.8520833 0 0 0 6.0854166 4.2333333 A 1.8520833 1.8520833 0 0 0 5.0270833 2.5626343 z " />
    <path
       id="path6"
       style="fill:#893bff;stroke-width:0.730001;stroke-linecap:round;fill-opacity:1;opacity:0.25"
       d="m 5.0270833,0.62740362 c 0,0.14667123 0.1207703,0.29301827 0.265826,0.339901 C 6.6993818,1.4218836 7.6701362,2.7345509 7.6729166,4.2333333 7.6669923,5.7293996 6.6969103,7.038335 5.292946,7.4921166 5.1478707,7.5390071 5.0270833,7.6900761 5.0270833,7.8425604 c 0,0.3027341 0.2444155,0.5052865 0.5334746,0.4100676 C 7.2748562,7.6879213 8.466281,6.078956 8.4666666,4.2333333 8.466281,2.3877316 7.2748834,0.77878191 5.5606165,0.21405787 5.2715265,0.11882412 5.0270833,0.32285213 5.0270833,0.62740362 Z"
       inkscape:path-effect="#path-effect37"
       inkscape:original-d="M 5.0270833 0.075964355 L 5.0270833 0.89296874 A 3.4395833 3.4395833 0 0 1 7.6729166 4.2333333 A 3.4395833 3.4395833 0 0 1 5.0270833 7.5664632 L 5.0270833 8.3907022 A 4.2333331 4.2333331 0 0 0 8.4666666 4.2333333 A 4.2333331 4.2333331 0 0 0 5.0270833 0.075964355 z " />
    <path
       d="M 2.973978,0.37885357 C 2.7147073,1.634881 1.6587502,2.7059614 0.38516244,2.9737496 0.27842879,2.9961917 0.16041021,3.0912072 0.13254143,3.19646 0.07775291,3.4033814 0.01049864,3.7506487 0,4.2333333 0.0105418,4.7180021 0.07830327,5.0659328 0.13304641,5.2721118 0.16070816,5.3762942 0.27829129,5.4704572 0.38486115,5.4928511 1.6590842,5.7606071 2.7146075,6.8320348 2.9739141,8.0875119 2.9940003,8.1847627 3.0809812,8.2909932 3.1764162,8.3178283 3.4756892,8.4019801 3.798558,8.4491905 4.1114517,8.461273 4.3978324,8.4723317 4.6302082,8.2155513 4.6302082,7.9287326 V 0.53793469 C 4.6302082,0.251116 4.3978186,-0.00568114 4.1114209,0.00538287 3.7973456,0.01751611 3.4745422,0.06502644 3.1763889,0.14885213 3.0809691,0.17567937 2.9940187,0.28176693 2.973978,0.37885357 Z M 3.8364583,0.931268 v 6.6041305 c 0,0.058825 -0.047092,0.098917 -0.1048063,0.08755 -0.038951,-0.00767 -0.080518,-0.052408 -0.094408,-0.098607 C 3.2939963,6.3826852 2.2753685,5.2359693 0.95538364,4.8334767 0.89579275,4.8153061 0.83529995,4.7531135 0.82571636,4.691612 0.78492071,4.4298112 0.78403128,4.0598231 0.82296836,3.7932812 0.83343606,3.721625 0.90443115,3.6490945 0.97443977,3.6273641 2.3555235,3.1986805 3.3195793,1.9927228 3.637192,0.94224653 c 0.013952,-0.0461453 0.062271,-0.0923739 0.1096459,-0.10148385 0.049375,-0.009495 0.08962,0.0316803 0.08962,0.0905053 z"
       style="opacity:1;fill:#893bff;stroke-width:0.659172;stroke-linecap:round"
       id="path36"
       inkscape:path-effect="#path-effect36"
       inkscape:original-d="M 3.0049845,0.20205485 C 2.8034093,1.5974866 1.6104281,2.8050056 0.19068603,3.0080851 0.14586287,3.1304733 0.01500029,3.5436813 0,4.2333333 0.0150549,4.9254959 0.14680995,5.3387796 0.19068607,5.4585815 1.6111995,5.6617709 2.8035006,6.8698491 3.0049844,8.2646118 3.5144417,8.4384636 4.1175845,8.4962974 4.6302082,8.4480638 V 0.01860352 C 4.1133519,-0.03001219 3.5108536,0.02943038 3.0049845,0.20205485 Z m 0.8314738,0.622701 V 7.6419107 C 3.7777846,7.6322307 3.7193682,7.6210299 3.6612752,7.6083211 3.3353483,6.4083369 2.2522064,5.1824289 0.84697672,4.8022908 c -0.0700972,-0.2972487 -0.0700353,-0.840927 0,-1.137915 C 2.3337411,3.2621816 3.3622048,1.9594356 3.6612753,0.85834553 c 0.058094,-0.012709 0.1165085,-0.0239095 0.175183,-0.0335897 z"
       sodipodi:nodetypes="ccccccccccccccc" />
    <path
       id="path11"
       style="display:none;opacity:0.130325;fill:#893bff;fill-opacity:1;stroke-width:0.730001;stroke-linecap:round"
       d="M 4.2333333,0 A 4.2333331,4.2333331 0 0 0 0,4.2333333 4.2333331,4.2333331 0 0 0 4.2333333,8.4666666 4.2333331,4.2333331 0 0 0 8.4666666,4.2333333 4.2333331,4.2333331 0 0 0 4.2333333,0 Z m 0,0.79374999 A 3.4395833,3.4395833 0 0 1 7.6729166,4.2333333 3.4395833,3.4395833 0 0 1 4.2333333,7.6729166 3.4395833,3.4395833 0 0 1 0.79374999,4.2333333 3.4395833,3.4395833 0 0 1 4.2333333,0.79374999 Z" />
  </g>
</svg>
