<?xml version="1.0" encoding="UTF-8" standalone="no"?>
<!-- Created with Inkscape (http://www.inkscape.org/) -->

<svg
   width="32"
   height="32"
   viewBox="0 0 8.4666666 8.4666666"
   version="1.1"
   id="svg1"
   sodipodi:docname="wifi-7.svg"
   inkscape:version="1.3 (0e150ed6c4, 2023-07-21)"
   xmlns:inkscape="http://www.inkscape.org/namespaces/inkscape"
   xmlns:sodipodi="http://sodipodi.sourceforge.net/DTD/sodipodi-0.dtd"
   xmlns="http://www.w3.org/2000/svg"
   xmlns:svg="http://www.w3.org/2000/svg">
  <sodipodi:namedview
     id="namedview1"
     pagecolor="#505050"
     bordercolor="#eeeeee"
     borderopacity="1"
     inkscape:showpageshadow="0"
     inkscape:pageopacity="0"
     inkscape:pagecheckerboard="0"
     inkscape:deskcolor="#343434"
     inkscape:document-units="px"
     inkscape:zoom="15.15625"
     inkscape:cx="15.96701"
     inkscape:cy="16"
     inkscape:window-width="1322"
     inkscape:window-height="688"
     inkscape:window-x="0"
     inkscape:window-y="0"
     inkscape:window-maximized="1"
     inkscape:current-layer="layer1" />
  <defs
     id="defs1">
    <inkscape:path-effect
       effect="fillet_chamfer"
       id="path-effect45"
       is_visible="true"
       lpeversion="1"
       nodesatellites_param="F,0,0,1,0,0,0,1 @ F,0,0,1,0,0,0,1 @ F,0,1,1,0,1.409735,0,1 @ F,0,0,1,0,0,0,1 @ F,0,0,1,0,1.409735,0,1 @ F,0,0,1,0,0,0,1"
       radius="0"
       unit="px"
       method="auto"
       mode="F"
       chamfer_steps="1"
       flexible="false"
       use_knot_distance="true"
       apply_no_radius="true"
       apply_with_radius="true"
       only_selected="false"
       hide_knots="false" />
    <inkscape:path-effect
       effect="fillet_chamfer"
       id="path-effect44"
       is_visible="true"
       lpeversion="1"
       nodesatellites_param="F,0,0,1,0,0,0,1 @ F,0,1,1,0,0.11042718,0,1 @ F,0,0,1,0,1.3008015,0,1 @ F,0,0,1,0,0,0,1 @ F,0,0,1,0,1.3008015,0,1 @ F,0,0,1,0,0.11042718,0,1"
       radius="0"
       unit="px"
       method="auto"
       mode="F"
       chamfer_steps="1"
       flexible="false"
       use_knot_distance="true"
       apply_no_radius="true"
       apply_with_radius="true"
       only_selected="false"
       hide_knots="false" />
    <inkscape:path-effect
       effect="fillet_chamfer"
       id="path-effect43"
       is_visible="true"
       lpeversion="1"
       nodesatellites_param="F,0,0,1,0,0,0,1 @ F,0,1,1,0,0.16497968,0,1 @ F,0,0,1,0,0.9794207,0,1 @ F,0,0,1,0,0,0,1 @ F,0,0,1,0,0.9794207,0,1 @ F,0,0,1,0,0.16497968,0,1"
       radius="0"
       unit="px"
       method="auto"
       mode="F"
       chamfer_steps="1"
       flexible="false"
       use_knot_distance="true"
       apply_no_radius="true"
       apply_with_radius="true"
       only_selected="false"
       hide_knots="false" />
    <inkscape:path-effect
       effect="fillet_chamfer"
       id="path-effect42"
       is_visible="true"
       lpeversion="1"
       nodesatellites_param="F,0,0,1,0,0,0,1 @ F,0,1,1,0,0.21121095,0,1 @ F,0,0,1,0,0.78591889,0,1 @ F,0,0,1,0,0,0,1 @ F,0,0,1,0,0.78591889,0,1 @ F,0,0,1,0,0.21121095,0,1"
       radius="0"
       unit="px"
       method="auto"
       mode="F"
       chamfer_steps="1"
       flexible="false"
       use_knot_distance="true"
       apply_no_radius="true"
       apply_with_radius="true"
       only_selected="false"
       hide_knots="false" />
    <inkscape:path-effect
       effect="fillet_chamfer"
       id="path-effect41"
       is_visible="true"
       lpeversion="1"
       nodesatellites_param="F,0,0,1,0,0,0,1 @ F,0,0,1,0,0.21998874,0,1 @ F,0,0,1,0,0.7641352,0,1 @ F,0,0,1,0,0,0,1 @ F,0,0,1,0,0.7641352,0,1 @ F,0,1,1,0,0.21998874,0,1"
       radius="0"
       unit="px"
       method="auto"
       mode="F"
       chamfer_steps="1"
       flexible="false"
       use_knot_distance="true"
       apply_no_radius="true"
       apply_with_radius="true"
       only_selected="false"
       hide_knots="false" />
    <inkscape:path-effect
       effect="fillet_chamfer"
       id="path-effect40"
       is_visible="true"
       lpeversion="1"
       nodesatellites_param="F,0,0,1,0,0,0,1 @ F,0,0,1,0,0,0,1 @ F,0,0,1,0,0.19934507,0,1 @ F,0,0,1,0,0.79241054,0,1 @ F,0,0,1,0,0,0,1 @ F,0,0,1,0,0,0,1 @ F,0,0,1,0,0,0,1 @ F,0,0,1,0,0.85392157,0,1 @ F,0,0,1,0,0.99175561,0,1 @ F,0,0,1,0,0,0,1"
       radius="0"
       unit="px"
       method="auto"
       mode="F"
       chamfer_steps="1"
       flexible="false"
       use_knot_distance="true"
       apply_no_radius="true"
       apply_with_radius="true"
       only_selected="false"
       hide_knots="false" />
  </defs>
  <g
     inkscape:label="Layer 1"
     inkscape:groupmode="layer"
     id="layer1">
    <path
       id="circle39"
       style="opacity:1;fill:#f572e7;stroke-width:6.81545;stroke-linecap:round;fill-opacity:1"
       d="M 4.2333333,0 C 4.0310169,3.1634004e-6 3.8289609,0.01450974 3.628719,0.0434082 3.0094827,0.13504479 2.4243997,0.36179531 1.9118129,0.70107451 1.2655712,1.1288193 1.439371,1.33924 2.1817008,1.1088358 2.8436929,0.90336685 3.5349995,0.79641815 4.2333333,0.79374999 4.9326566,0.79429633 5.625245,0.89943833 6.2887011,1.1034549 7.0316292,1.3319096 7.2045501,1.1212537 6.5569028,0.69564058 5.9326964,0.2854321 5.2037888,0.04291338 4.4410726,0.00516764 4.3718789,0.00174553 4.3026116,2.246649e-5 4.2333333,0 Z"
       inkscape:path-effect="#path-effect45"
       inkscape:original-d="M 4.2333333 0 A 4.2333331 4.2333331 0 0 0 3.628719 0.043408203 A 4.2333331 4.2333331 0 0 0 0.88625081 1.6588135 A 7.0114584 7.0114584 0 0 1 4.2333333 0.79374999 A 7.0114584 7.0114584 0 0 1 7.5855834 1.6500285 A 4.2333331 4.2333331 0 0 0 4.4410726 0.0051676432 A 4.2333331 4.2333331 0 0 0 4.2333333 0 z " />
    <path
       id="circle14"
       style="opacity:1;fill:#f572e7;stroke-width:1.61722;stroke-linecap:round;fill-opacity:1"
       d="m 4.2333333,5.953125 c -1.0228774,0 -1.8520833,0.8292059 -1.8520833,1.8520833 6.91e-5,0.012865 2.722e-4,0.025727 6.092e-4,0.038584 0.00288,0.1100043 0.096404,0.2373367 0.1979731,0.2797924 0.4031949,0.1685347 0.5969425,1.074e-4 0.5951677,-0.318376 -10e-8,-0.5845014 0.4738319,-1.0583334 1.0583333,-1.0583334 0.5845014,0 1.0583334,0.473832 1.0583333,1.0583334 -0.00177,0.3184834 0.2200446,0.4821074 0.6517473,0.2942414 0.069801,-0.030376 0.1412975,-0.1629252 0.1420027,-0.2942414 0,-1.0228774 -0.8292059,-1.8520833 -1.8520833,-1.8520833 z"
       inkscape:path-effect="#path-effect40"
       inkscape:original-d="M 4.2333333 5.953125 A 1.8520833 1.8520833 0 0 0 2.38125 7.8052083 A 1.8520833 1.8520833 0 0 0 2.3977864 8.0424031 A 4.2333331 4.2333331 0 0 0 3.3351969 8.3591796 A 1.0583333 1.0583333 0 0 1 3.175 7.8052083 A 1.0583333 1.0583333 0 0 1 4.2333333 6.7468749 A 1.0583333 1.0583333 0 0 1 5.2916666 7.8052083 A 1.0583333 1.0583333 0 0 1 5.1314697 8.3591796 A 4.2333331 4.2333331 0 0 0 6.0688802 8.0424031 A 1.8520833 1.8520833 0 0 0 6.0854166 7.8052083 A 1.8520833 1.8520833 0 0 0 4.2333333 5.953125 z " />
    <circle
       style="opacity:1;fill:#f572e7;stroke-width:0.57758;stroke-linecap:round;fill-opacity:1"
       id="path13"
       cx="4.2333331"
       cy="7.8052082"
       r="0.66145831" />
    <path
       id="circle16"
       style="display:inline;opacity:1;fill:#f572e7;stroke-width:2.65687;stroke-linecap:round;fill-opacity:1"
       d="M 4.2333333,4.7625 C 2.8530307,4.7658083 1.6580797,5.6957528 1.3032943,7.0110843 1.2716544,7.1283862 1.3225309,7.2959309 1.4122927,7.3777899 1.706973,7.6465253 1.9731252,7.463015 2.1194033,7.0704113 2.3786683,6.374556 3.0255619,5.55625 4.2333333,5.55625 c 1.1815163,0 1.8490176,0.7920734 2.1143003,1.5129618 0.1448251,0.3935527 0.4288938,0.5671875 0.737519,0.2801884 0.072034,-0.066987 0.109863,-0.2209949 0.078231,-0.3382744 C 6.808612,5.6957724 5.6136504,4.7658084 4.2333333,4.7625 Z"
       sodipodi:nodetypes="cccsccc"
       inkscape:path-effect="#path-effect41"
       inkscape:original-d="M 4.2333333,4.7625 C 2.7791922,4.7659853 1.5307637,5.7978982 1.2536702,7.2253987 1.4748354,7.4492116 1.7202641,7.6476692 1.9854085,7.8170939 1.9313832,7.2143152 2.5141282,5.55625 4.2333333,5.55625 c 1.6332277,0 2.2842783,1.5134897 2.2484416,2.2603271 C 6.7467124,7.6472828 6.9919655,7.4490005 7.2129964,7.2253987 6.9359029,5.7978982 5.6874744,4.7659853 4.2333333,4.7625 Z" />
    <path
       id="circle18"
       style="display:inline;opacity:1;fill:#f572e7;stroke-width:3.69652;stroke-linecap:round;fill-opacity:1"
       d="m 4.2333333,3.571875 c -1.5749841,8.286e-4 -3.0129139,0.8751347 -3.74211412,2.2581797 -0.0544012,0.1031807 -0.0538199,0.2749769 0.001297,0.3777689 0.001466,0.00273 0.002934,0.00547 0.004406,0.0082 C 0.70257851,6.5975477 1.0203674,6.5231443 1.2294746,6.1438599 1.8231078,5.0671115 2.9637912,4.3686568 4.2333333,4.365625 c 1.2694223,3.652e-4 2.4114819,0.696289 3.0074241,1.7716276 0.2099484,0.3788382 0.5281425,0.4527598 0.733299,0.070961 3.538e-4,-6.583e-4 7.074e-4,-0.00132 0.00106,-0.00198 0.055153,-0.1027715 0.055733,-0.2745315 0.00129,-0.3776841 C 7.2466459,4.4457827 5.8083382,3.5720505 4.2333333,3.571875 Z"
       inkscape:path-effect="#path-effect42"
       inkscape:original-d="M 4.2333333 3.571875 A 4.2333331 4.2333331 0 0 0 0.39739176 6.0192708 A 4.2333331 4.2333331 0 0 0 0.93172607 6.8693481 A 3.4395833 3.4395833 0 0 1 4.2333333 4.365625 A 3.4395833 3.4395833 0 0 1 7.5401082 6.8621134 A 4.2333331 4.2333331 0 0 0 8.0703084 6.0177205 A 4.2333331 4.2333331 0 0 0 4.2333333 3.571875 z " />
    <path
       id="circle20"
       style="display:inline;opacity:1;fill:#f572e7;stroke-width:4.73617;stroke-linecap:round;fill-opacity:1"
       d="M 4.2333333,2.38125 C 2.6462469,2.3852516 1.1434989,3.0839604 0.11796906,4.2880322 0.05889154,4.3573949 0.01565046,4.4890817 0.02297514,4.5798968 0.06613976,5.1150646 0.42090192,5.1413598 0.77865508,4.7369883 1.6442796,3.7585652 2.8966054,3.1788048 4.2333333,3.175 c 1.3367253,0.0038 2.5890488,0.5835629 3.4546732,1.5619826 0.3577566,0.4043741 0.7135247,0.3758808 0.7564785,-0.1621207 2.504e-4,-0.00314 4.972e-4,-0.00627 7.406e-4,-0.00941 C 8.4522741,4.4746187 8.4086104,4.343083 8.3492952,4.2739227 7.3209847,3.0749335 5.8183529,2.3815431 4.2333333,2.38125 Z"
       inkscape:path-effect="#path-effect43"
       inkscape:original-d="M 4.2333333 2.38125 A 5.4239583 5.4239583 0 0 0 0.012919108 4.4152343 A 4.2333331 4.2333331 0 0 0 0.21187337 5.5335123 A 4.6302085 4.6302085 0 0 1 4.2333333 3.175 A 4.6302085 4.6302085 0 0 1 8.2547932 5.5335123 A 4.2333331 4.2333331 0 0 0 8.454781 4.4007649 A 5.4239583 5.4239583 0 0 0 4.2333333 2.38125 z " />
    <path
       id="circle37"
       style="opacity:1;fill:#f572e7;stroke-width:5.7758;stroke-linecap:round;fill-opacity:1"
       d="m 4.2333333,1.190625 c -1.3353799,0.0052 -2.6370168,0.4144469 -3.73425124,1.1725733 -0.0501742,0.034667 -0.11142443,0.108248 -0.13583285,0.164136 -0.001254,0.00287 -0.002504,0.00574 -0.003751,0.00861 C 0.07455364,3.1923549 0.42892706,3.3518804 1.0262516,2.9554275 1.9692031,2.329577 3.0828231,1.9867362 4.2333333,1.984375 c 1.1528888,4.382e-4 2.2692486,0.3428221 3.2144244,0.9694779 0.5975185,0.3961574 0.9501732,0.2365728 0.6631012,-0.4189106 -5.214e-4,-0.00119 -0.00104,-0.00238 -0.00157,-0.00357 C 8.0847783,2.4755358 8.0234737,2.4019567 7.9733362,2.367235 6.8749529,1.6065725 5.5711071,1.1958549 4.2333333,1.190625 Z"
       inkscape:path-effect="#path-effect44"
       inkscape:original-d="M 4.2333333 1.190625 A 6.6145835 6.6145835 0 0 0 0.40876058 2.4267252 A 4.2333331 4.2333331 0 0 0 0.031522623 3.7894328 A 5.8208332 5.8208332 0 0 1 4.2333333 1.984375 A 5.8208332 5.8208332 0 0 1 8.4428954 3.7873657 A 4.2333331 4.2333331 0 0 0 8.0635904 2.4308594 A 6.6145835 6.6145835 0 0 0 4.2333333 1.190625 z " />
  </g>
</svg>
